<?xml version="1.0" encoding="utf-8"?>
<!-- Generator: Adobe Illustrator 19.1.0, SVG Export Plug-In . SVG Version: 6.00 Build 0)  -->
<svg version="1.1" id="Layer_1" xmlns="http://www.w3.org/2000/svg" xmlns:xlink="http://www.w3.org/1999/xlink" x="0px" y="0px"
	 viewBox="0 0 960 203" style="enable-background:new 0 0 960 203; font-size = 10em" xml:space="preserve" >
<style type="text/css">
	.st0{fill:#FFFFFF;}
	.st1{fill:#A5B0B8;}
	.st2{fill:#fff;}
</style>
<g>
	<g>
		<path class="st0" d="M193.2,203h-34.4l2.4-29h-16.9l-2.4,29H70.6l-2.4-29H51.3l2.4,29H19.3L0,77.3L48.3,0h115.9l48.3,77.3
			L193.2,203z M154.5,38.7h-31l2.1,14.5H86.9L89,38.7H58L38.6,77.3l9.7,77.3h115.9l9.7-77.3L154.5,38.7z M137.6,129
			c-2.7,0-4.8-8-4.8-18s2.2-18,4.8-18c2.7,0,4.8,8,4.8,18S140.3,129,137.6,129z M76.7,130.5c-2.7,0-4.8-8-4.8-18s2.2-18,4.8-18
			c2.7,0,4.8,8,4.8,18S79.3,130.5,76.7,130.5z"/>

	</g>

</g>
	 <text x="250" y="200" style="font-size:100px; fill:#fff">
STATIIP GUI
	 </text>
</svg>
